<svg width="16" height="17" viewBox="0 0 16 17" fill="none" xmlns="http://www.w3.org/2000/svg">
<path d="M15.5073 11.8883L14.4714 10.165C14.2423 9.78915 14.0406 9.06498 14.0406 8.62498V6.91082C14.0406 3.58332 11.3364 0.87915 8.01811 0.87915C4.69061 0.888317 1.98645 3.58332 1.98645 6.91082V8.61582C1.98645 9.05582 1.78478 9.77998 1.56478 10.1558L0.528946 11.8792C0.134779 12.5483 0.0431123 13.3091 0.290612 13.9691C0.538112 14.6383 1.09728 15.17 1.83061 15.4083C2.82061 15.7383 3.81978 15.9766 4.83728 16.1508C4.93811 16.1691 5.03895 16.1783 5.13978 16.1967C5.26811 16.215 5.40561 16.2333 5.54311 16.2516C5.78145 16.2883 6.01978 16.3158 6.26728 16.3342C6.84478 16.3892 7.43145 16.4167 8.01811 16.4167C8.59561 16.4167 9.17311 16.3892 9.74145 16.3342C9.95228 16.3158 10.1631 16.2975 10.3648 16.27C10.5298 16.2517 10.6948 16.2333 10.8598 16.2058C10.9606 16.1967 11.0614 16.1783 11.1623 16.16C12.1889 15.995 13.2064 15.7383 14.1964 15.4083C14.9023 15.17 15.4431 14.6383 15.6998 13.96C15.9564 13.2725 15.8831 12.5208 15.5073 11.8883ZM8.68728 8.16665C8.68728 8.55165 8.37561 8.86332 7.99061 8.86332C7.60561 8.86332 7.29395 8.55165 7.29395 8.16665V5.32498C7.29395 4.93998 7.60561 4.62832 7.99061 4.62832C8.37561 4.62832 8.68728 4.93998 8.68728 5.32498V8.16665Z" fill="#18333E"/>
</svg>
